HIERARCHY
ROOT Hips
{
	OFFSET	0	0	0
	CHANNELS 6  Xposition Yposition Zposition Xrotation Yrotation Zrotation
	JOINT Spine
	{
		OFFSET	0	7.09727	1.42491
		CHANNELS 3  Xrotation Yrotation Zrotation
		JOINT Spine1
		{
			OFFSET	0	12.1515	-2.16991
			CHANNELS 3  Xrotation Yrotation Zrotation
			JOINT Spine2
			{
				OFFSET	0	9.21125	0.987307
				CHANNELS 3  Xrotation Yrotation Zrotation
				JOINT Spine3
				{
					OFFSET	0	11.0231	3.27656
					CHANNELS 3  Xrotation Yrotation Zrotation
					JOINT Spine4
					{
						OFFSET	0	16.3177	-1.67083
						CHANNELS 3  Xrotation Yrotation Zrotation
						JOINT Neck
						{
							OFFSET	0	7.78996	-5.45731
							CHANNELS 3  Xrotation Yrotation Zrotation
							JOINT Head
							{
								OFFSET	0	9.35229	-2.79918
								CHANNELS 3  Xrotation Yrotation Zrotation
								End Site
								{
									OFFSET	0	19.5075	-0.943909
								}
							}
						}
					}
					JOINT LeftShoulder
					{
						OFFSET	-4.687	19.8329	-9.3523
						CHANNELS 3  Xrotation Yrotation Zrotation
						JOINT LeftArm
						{
							OFFSET	-10.2164	-2.79918	3.59122
							CHANNELS 3  Xrotation Yrotation Zrotation
							JOINT LeftForeArm
							{
								OFFSET	-30.9138	-1.41096	2.20659
								CHANNELS 3  Xrotation Yrotation Zrotation
								JOINT LeftHand
								{
									OFFSET	-25.9068	-1.7903	1.8492
									CHANNELS 3  Xrotation Yrotation Zrotation
									End Site
									{
										OFFSET	-9.45469	-0.653372	0.674821
									}
								}
							}
						}
					}
					JOINT RightShoulder
					{
						OFFSET	4.687	19.8329	-9.3523
						CHANNELS 3  Xrotation Yrotation Zrotation
						JOINT RightArm
						{
							OFFSET	10.2164	-2.79918	3.59122
							CHANNELS 3  Xrotation Yrotation Zrotation
							JOINT RightForeArm
							{
								OFFSET	30.9138	-1.41096	2.20659
								CHANNELS 3  Xrotation Yrotation Zrotation
								JOINT RightHand
								{
									OFFSET	25.9068	-1.7903	1.8492
									CHANNELS 3  Xrotation Yrotation Zrotation
									End Site
									{
										OFFSET	9.45469	-0.653372	0.674821
									}
								}
							}
						}
					}
				}
			}
		}
	}
	JOINT LeftUpLeg
	{
		OFFSET	-9.67573	-3.54864	-0.712453
		CHANNELS 3  Xrotation Yrotation Zrotation
		JOINT LeftLeg
		{
			OFFSET	-2.14499	-42.0303	-0.657025
			CHANNELS 3  Xrotation Yrotation Zrotation
			JOINT LeftFoot
			{
				OFFSET	-2.09953	-38.701	3.32829
				CHANNELS 3  Xrotation Yrotation Zrotation
				JOINT LeftToeBase
				{
					OFFSET	0	-4.7778	-12.6898
					CHANNELS 3  Xrotation Yrotation Zrotation
					End Site
					{
						OFFSET	0	-1.91111	-7.64447
					}
				}
			}
		}
	}
	JOINT RightUpLeg
	{
		OFFSET	9.67573	-3.54864	-0.712453
		CHANNELS 3  Xrotation Yrotation Zrotation
		JOINT RightLeg
		{
			OFFSET	2.14499	-42.0303	-0.657025
			CHANNELS 3  Xrotation Yrotation Zrotation
			JOINT RightFoot
			{
				OFFSET	2.09953	-38.701	3.32829
				CHANNELS 3  Xrotation Yrotation Zrotation
				JOINT RightToeBase
				{
					OFFSET	0	-4.7778	-12.6898
					CHANNELS 3  Xrotation Yrotation Zrotation
					End Site
					{
						OFFSET	0	-1.91111	-7.64447
					}
				}
			}
		}
	}
}
MOTION
Frames: 8
Frame Time: 0.020409
 94.1377 48.4435 72.6804 70.1475 -165.975 171.704 179.958 179.025 -177.504 14.7964 1.94632 4.16105 14.8923 5.83891 4.18037 11.0573 0.974805 2.49555 2.31636 0.0336185 0.83105 173.36 -155.277 169.836 177.16 -143.211 173.422 171.306 164.578 165.831 41.8162 -25.7452 14.7043 42.5587 -59.5037 36.0921 -0 5.22362 -14.0658 173.98 -166.257 -170.047 54.9108 19.6215 -32.619 44.6401 73.8182 -41.7102 -0 -2.60969 13.7031 23.0074 23.433 -9.36725 93.0909 -173.125 -174.164 158.405 -179.176 -172.69 142.148 180 -180 30.5098 -9.79327 11.1841 130.359 -161.887 160.765 142.678 -144.503 68.1538 144.193 180 -180
 93.9338 48.7562 72.8145 69.5842 -165.686 171.571 179.966 179.1 -177.808 14.9405 1.79749 3.65543 15.0253 5.39244 3.66989 10.9485 0.899917 2.19245 2.81081 0.0358354 0.729846 174.881 -155.379 171.506 177.634 -142.871 173.966 172.128 163.08 167.54 40.635 -23.9738 15.6229 43.3177 -60.6284 37.6069 -0 4.12389 -14.9966 173.616 -168.542 -169.07 57.4933 20.255 -31.065 41.9371 74.0319 -38.9783 -0 -2.31579 14.24 24.5114 23.0376 -9.28951 95.957 -171.635 -174.568 158.755 -179.619 -171.429 142.09 180 -180 30.3506 -11.7089 9.90449 132.067 -162.011 162.744 152.14 -140.265 77.5161 143.406 180 -180
 93.1298 48.5238 72.692 69.6555 -164.341 170.606 179.968 179.125 -177.895 14.8294 1.74762 3.51021 14.8912 5.24285 3.52334 10.7566 0.874863 2.10539 3.03947 0.0372096 0.700729 175.629 -155.614 171.619 177.943 -143.66 174.167 172.665 160.98 168.844 40.1898 -21.5177 16.2384 46.2065 -62.9281 41.2147 -0 2.7932 -16.059 173.863 -171.599 -169.066 59.9161 20.341 -30.0785 37.0618 73.5213 -34.1114 -0 -2.17876 14.8449 24.6624 23.6102 -8.1338 99.9052 -171.209 -174.815 159.319 -179.65 -170.849 142.023 180 -180 32.1583 -16.6852 11.6838 130.505 -156.819 168.26 146.118 -149.747 86.2395 141.933 180 -180
 91.3874 48.0968 72.9723 69.4813 -161.909 168.888 179.969 178.938 -178.311 14.812 2.12236 2.81587 14.8396 6.36705 2.83142 10.6253 1.062 1.68865 3.30962 0.0324918 0.561849 176.642 -155.751 173.295 178.219 -142.932 174.624 173.216 159.147 170.06 38.2502 -19.5024 17.4773 48.1848 -64.7366 43.7891 -0 1.31328 -16.4782 172.995 -174.269 -167.068 63.3851 21.8779 -28.5081 30.8535 72.0886 -27.6862 -0 -2.19972 15.1389 22.9556 24.1352 -4.71887 105.675 -173.489 -174.068 159.782 179.919 -171.258 141.964 180 -180 37.2542 -16.496 14.1699 128.125 -139.579 179.275 119.617 -171.831 105.899 139.837 180 -180
 94.1763 48.6141 73.9641 71.404 -174.354 173.576 0.000553159 -0.0144702 2.1892 14.3697 -0.0289029 3.64867 14.657 -0.0867087 3.64867 10.43 -0.0144702 2.1892 2.8038 0.0356977 0.72886 175.75 -155.395 173.171 177.843 -141.886 174.37 172.413 162.721 168.081 38.1611 -19.2161 17.7197 46.5921 -65.1859 41.935 -0 0.18 -16.8216 172.513 -173.583 -166.259 64.9253 21.6605 -26.8786 25.4109 69.9131 -22.4868 -0 -2.80948 15.1189 27.8527 14.7905 -6.62569 105.479 -175.12 179.993 156.954 179.998 -172.136 141.878 180 -180 29.9135 2.16603 -4.83144 122.424 -176.719 -179.835 156.628 -179.984 168.598 139.891 180 -180
 94.2072 48.6489 74.1787 71.4817 -174.013 174.444 0.000816249 -0.0258178 1.81085 14.3469 -0.0515897 3.01808 14.6267 -0.154769 3.01809 10.3867 -0.0258178 1.81085 2.86086 0.030128 0.602863 175.956 -155.373 173.285 177.913 -141.857 174.418 172.783 162.326 168.759 37.5129 -17.2771 18.9086 50.5775 -67.6526 46.4977 -0 -1.22293 -17.2123 171.598 -175.86 -164.11 66.8349 22.2158 -25.1843 19.8654 66.9505 -16.7606 -0 -3.21103 14.7154 28.4007 13.4552 -6.99078 109.702 -178.984 -179.762 157.11 179.991 -173.307 141.808 180 -180 29.0801 1.73589 -5.96035 120.256 -176.906 -179.908 156.52 -179.983 168.639 139.897 180 -180
 94.0341 48.6161 74.4564 71.4945 -173.512 175.285 0.000461618 -0.0175836 1.50383 14.3694 -0.0351457 2.50638 14.5985 -0.105437 2.50638 10.2572 -0.0175836 1.50383 3.20686 0.0280426 0.50049 177.021 -155.256 173.778 178.278 -141.769 174.653 172.902 162.107 168.993 37.6253 -15.513 19.5811 54.4794 -69.5323 50.8501 -0 -2.10921 -17.415 170.936 -177.571 -162.491 68.3587 22.1293 -23.2886 16.1966 64.5783 -13.0642 -0 -3.58241 14.013 28.4878 12.2705 -7.36156 113.828 176.285 -179.93 157.048 179.987 -174.881 141.756 180 -180 28.4731 1.38642 -6.92298 120.127 -176.632 179.999 156.666 -179.978 168.807 139.916 180 -180
 94.017 48.497 74.6732 71.5297 -172.891 176.213 0.000267371 -0.0126241 1.21331 14.4058 -0.0252381 2.02218 14.5671 -0.0757144 2.02218 10.0821 -0.0126241 1.21331 3.68491 0.0259934 0.4036 178.484 -155.337 174.68 178.786 -141.847 175.058 173.146 162.367 169.333 39.7356 -13.9291 19.9894 57.3617 -70.8646 54.3159 -0 -2.60155 -17.8441 170.216 -178.623 -160.824 68.673 21.8003 -21.5211 13.4475 62.5317 -10.251 -0 -3.65041 13.1359 28.503 11.2337 -8.0898 118.243 171.083 -179.905 157.037 -179.988 -176.774 141.721 180 -180 27.4175 1.27257 -8.22975 120.679 -176.228 -179.947 156.723 -179.982 169.02 139.924 180 -180
